<?xml version="1.0" encoding="UTF-8"?>
<svg id="Layer_1" data-name="Layer 1" xmlns="http://www.w3.org/2000/svg" viewBox="0 0 285.02 126.05">
  <defs>
    <style>
      .cls-1 {
        fill: #fff;
      }

      .cls-1, .cls-2 {
        stroke: #231f20;
      }

      .cls-1, .cls-2, .cls-3 {
        stroke-miterlimit: 10;
      }

      .cls-2 {
        fill: #464e47;
      }

      .cls-3 {
        fill: none;
        stroke: #ccfccb;
      }
    </style>
  </defs>
  <g>
    <path class="cls-2" d="m66.64,116.25c.95,1.13,2.87.7,3.57.55,3.38-.75,5.54-3.61,6.23-4.5,3.2-4.1,7.85-6.62,11.55-10.21,1.82-1.76,6.8-5.98,16.7-14.34,28.7-24.24,48.1-40.21,47.84-40.59-.38-.55-42.62,32.15-50.04,37.91-12.38,9.61-12.87,10.2-16.64,12.64-4.85,3.12-8.9,7.68-14.04,10.21-1.26.62-4.86,2.3-5.55,5.47-.07.32-.41,1.89.4,2.86Z"/>
    <path class="cls-1" d="m73.04,112.78c-2,1.31-4.8,2.56-5.21,1.94-.39-.6,1.57-2.8,2.83-4.01,3.15-3.01,7.51-5.04,8.04-4.25.5.76-2.44,4.21-5.66,6.32Z"/>
  </g>
  <path class="cls-3" d="m73.73,125.14c3.16.87,6.23.34,7.81-1.54,2.28-2.72.65-7.3-.85-9.41-3.96-5.56-13.83-1.86-26.15-1.37-5.2.21-29.52,1.18-43.14-12.31C1.64,90.83-1.11,75.2,1.35,63.05,6.86,35.77,39.05,24.01,46.73,21.51c46.37-15.08,95.41,16.21,110.73,25.99,40.64,25.94,45.95,49.45,74.05,50.27,18.16.53,41.04-8.57,49.59-28.04,9.59-21.83-2.39-48.52-18.34-60.23C238.43-8.36,193.02-.08,160.52,38.28"/>
</svg>